# xmcd CD database file
#
# Track frame offsets:
#	150
#	12885
#	29623
#	51299
#	71010
#	90921
#
# Disc length: 1539 seconds
#
# Revision: 0
# Processed by: cddbd v1.5.2PL0 Copyright (c) Steve Scherf et al.
# Submitted via: CD2WAV32(JP) R3.22
#
DISCID=45060106
DTITLE=フジタルイジ - kitto君ならできる
DYEAR=2010
DGENRE=Pop
TTITLE0=ダンサー
TTITLE1=メリーゴーランド
TTITLE2=リセット
TTITLE3=心配しないで
TTITLE4=きっと君ならできる
TTITLE5=小さな愛のために
EXTD=
EXTT0=
EXTT1=
EXTT2=
EXTT3=
EXTT4=
EXTT5=
PLAYORDER=
